# xmcd
#
# Track frame offsets:
#	150
#	13675
#	24716
#	42512
#	63332
#	83947
#	100376
#	115692
#	130266
#	143586
#	158704
#	175262
#	194250
#
# Disc length: 2773 seconds
#
# Revision: 1
# Processed by: cddbd v1.5.2PL0 Copyright (c) Steve Scherf et al.
# Submitted via: audiograbber 1.83.01
#
DISCID=ab0ad30d
DTITLE=Nevada - Do you wanna dance?
DYEAR=2007
DGENRE=Country
TTITLE0=fit to be tied
TTITLE1=Don't u recognize a fool
TTITLE2=New kind of love
TTITLE3=El mundo
TTITLE4=Inside of every heart
TTITLE5=Desperado
TTITLE6=Dou you wanna dance?
TTITLE7=Forever
TTITLE8=It's all over
TTITLE9=Go back home
TTITLE10=Good friends
TTITLE11=Cowboy Cadillac Band
TTITLE12=Mexico
EXTD=
EXTT0=
EXTT1=
EXTT2=
EXTT3=
EXTT4=
EXTT5=
EXTT6=
EXTT7=
EXTT8=
EXTT9=
EXTT10=
EXTT11=
EXTT12=
PLAYORDER=
